<svg width="32" height="32" viewBox="0 0 32 32" fill="none" xmlns="http://www.w3.org/2000/svg">
  <defs>
    <linearGradient id="rdt-body" x1="7" y1="11" x2="25" y2="28" gradientUnits="userSpaceOnUse">
      <stop offset="0" stop-color="#f0554a"/>
      <stop offset="1" stop-color="#b91c1c"/>
    </linearGradient>
    <linearGradient id="rdt-head" x1="12" y1="5.5" x2="20" y2="13" gradientUnits="userSpaceOnUse">
      <stop offset="0" stop-color="#3f4a5c"/>
      <stop offset="1" stop-color="#1b2332"/>
    </linearGradient>
  </defs>

  <path d="M11.2 5.2 Q9 3.6 7.1 4.3 Q8.6 6 10 7.6 Z" fill="url(#rdt-head)"/>
  <path d="M20.8 5.2 Q23 3.6 24.9 4.3 Q23.4 6 22 7.6 Z" fill="url(#rdt-head)"/>

  <ellipse cx="16" cy="19.5" rx="9.2" ry="8.7" fill="url(#rdt-body)"/>
  <path d="M16 11.4 C13.6 15.4 13.6 23.6 16 28" stroke="#8a1f1f" stroke-width="1.1" stroke-linecap="round" fill="none" opacity="0.55"/>
  <path d="M16 11.4 C18.4 15.4 18.4 23.6 16 28" stroke="#8a1f1f" stroke-width="1.1" stroke-linecap="round" fill="none" opacity="0.55"/>
  <ellipse cx="12.5" cy="15" rx="3.1" ry="2.1" fill="#ffffff" opacity="0.22" transform="rotate(-25 12.5 15)"/>

  <ellipse cx="16" cy="8.6" rx="4.1" ry="3.9" fill="url(#rdt-head)"/>

  <circle cx="11.6" cy="16.6" r="1.9" fill="#2a1010"/>
  <circle cx="20.4" cy="16.6" r="1.9" fill="#2a1010"/>
  <circle cx="10.8" cy="23" r="1.7" fill="#2a1010"/>
  <circle cx="21.2" cy="23" r="1.7" fill="#2a1010"/>
  <circle cx="16" cy="25.4" r="1.5" fill="#2a1010"/>
</svg>
